<svg width="48" height="48" viewBox="0 0 48 48" fill="none" xmlns="http://www.w3.org/2000/svg">
  <rect width="48" height="48" rx="12" fill="#470027"/>
  <path d="M24 14C19.5817 14 16 17.5817 16 22C16 26.4183 19.5817 30 24 30C28.4183 30 32 26.4183 32 22C32 17.5817 28.4183 14 24 14Z" fill="white" opacity="0.2"/>
  <path d="M24 18C21.7909 18 20 19.7909 20 22C20 24.2091 21.7909 26 24 26C26.2091 26 28 24.2091 28 22C28 19.7909 26.2091 18 24 18Z" fill="white"/>
  <path d="M14 32L17 29L21 33L24 30L27 33L31 29L34 32" stroke="white" stroke-width="2" stroke-linecap="round" stroke-linejoin="round"/>
</svg>
